<svg data-v-0dd9719b="" version="1.0" xmlns="http://www.w3.org/2000/svg" xmlns:xlink="http://www.w3.org/1999/xlink" width="100%" height="100%" viewBox="0 0 340.000000 250.000000" preserveAspectRatio="xMidYMid meet" color-interpolation-filters="sRGB" style="margin: auto;">   <g data-v-0dd9719b="" fill="#a04732" class="icon-text-wrapper icon-svg-group iconsvg" transform="translate(81.12232196331024,69.14101028442383)"><g class="iconsvg-imagesvg" transform="translate(58.87999725341797,0)"><g><rect fill="#a04732" fill-opacity="0" stroke-width="2" x="0" y="0" width="60" height="60.00240009600384" class="image-rect"></rect> <svg filter="url(#colors8022392969)" x="0" y="0" width="60" height="60.00240009600384" filtersec="colorsf4828001619" class="image-svg-svg primary" style="overflow: visible;"><svg version="1.1" id="图层_1" xmlns="http://www.w3.org/2000/svg" xmlns:xlink="http://www.w3.org/1999/xlink" x="0px" y="0px" viewBox="1.1299996376037598 1.2500004768371582 87.75 87.75375366210938" enable-background="new 0 0 90 89.75" xml:space="preserve">
<g>
	<path fill="#0A0A0A" d="M62.39,27.74c-9.6-9.6-25.18-9.6-34.78,0c-9.6,9.6-9.6,25.17,0,34.78c9.6,9.6,25.17,9.61,34.78,0
		S71.99,37.34,62.39,27.74z M54.47,54.59c-5.23,5.23-13.71,5.23-18.94,0c-5.23-5.23-5.23-13.71,0-18.94s13.71-5.23,18.94,0
		C59.7,40.89,59.7,49.36,54.47,54.59z"></path>
	<path fill="#0A0A0A" d="M73.75,16.37c5.23,5.23,5.23,13.71,0,18.94l7.92,7.92c9.6-9.6,9.6-25.17,0-34.78
		c-9.6-9.6-25.17-9.6-34.78,0l7.92,7.92C60.04,11.14,68.52,11.14,73.75,16.37z"></path>
	<path fill="#0A0A0A" d="M16.25,35.31c-5.23-5.23-5.23-13.71,0-18.94c5.23-5.23,13.71-5.23,18.94,0l7.92-7.92
		c-9.6-9.6-25.17-9.6-34.78,0c-9.6,9.6-9.6,25.17,0,34.78L16.25,35.31z"></path>
	<path fill="#0A0A0A" d="M16.25,73.88c-5.23-5.23-5.23-13.71,0-18.94l-7.92-7.92c-9.6,9.6-9.6,25.17,0,34.78
		c9.6,9.6,25.17,9.6,34.78,0l-7.92-7.92C29.96,79.11,21.48,79.11,16.25,73.88z"></path>
	<path fill="#0A0A0A" d="M73.75,54.94c5.23,5.23,5.23,13.71,0,18.94c-5.23,5.23-13.71,5.23-18.94,0L46.9,81.8
		c9.6,9.6,25.17,9.61,34.78,0c9.6-9.6,9.6-25.17,0-34.78L73.75,54.94z"></path>
</g>
</svg></svg> <defs><filter id="colors8022392969"><feColorMatrix type="matrix" values="0 0 0 0 0.0078125  0 0 0 0 0  0 0 0 0 0.04296875  0 0 0 1 0" class="icon-fecolormatrix"></feColorMatrix></filter> <filter id="colorsf4828001619"><feColorMatrix type="matrix" values="0 0 0 0 0.99609375  0 0 0 0 0.99609375  0 0 0 0 0.99609375  0 0 0 1 0" class="icon-fecolormatrix"></feColorMatrix></filter> <filter id="colorsb3045068956"><feColorMatrix type="matrix" values="0 0 0 0 0  0 0 0 0 0  0 0 0 0 0  0 0 0 1 0" class="icon-fecolormatrix"></feColorMatrix></filter></defs></g></g> <g transform="translate(0,67.00239944458008)"><g data-gra="path-name" fill-rule="" class="tp-name iconsvg-namesvg" transform="translate(0,0)"><g transform="scale(1)"><g><path d="M1.1-13.73L4.15-16.7 10.84-16.7 10.84-26.15 14.62-26.15 14.62 3.71 4.15 3.71 1.1 0.65 1.1-13.73ZM4.93-12.91L4.93-0.08 10.84-0.08 10.84-12.91 4.93-12.91ZM18.45-22.44L18.45-26.19 32.38-26.19 35.36-23.18 35.36-12.26 32.38-9.21 22.24-9.21 22.24-0.08 35.36-0.08 35.36 3.71 21.43 3.71 18.45 1.06 18.45-10.02 21.43-13.03 31.61-13.03 31.61-22.44 18.45-22.44ZM39.06 3.71L39.06-26.19 42.81-26.19 42.81 3.71 39.06 3.71ZM60.08-13.03L60.08 3.75 56.25 3.75 56.25-13.77 59.31-16.82 66.84-16.82 69.86-13.77 69.86 3.75 66.11 3.75 66.11-13.03 60.08-13.03ZM82.65-16.82L85.66-13.77 85.66 0.65 82.65 3.71 75.11 3.71 72.06 0.65 72.06-13.77 75.11-16.82 82.65-16.82ZM81.91-0.08L81.91-13.03 75.89-13.03 75.89-0.08 81.91-0.08ZM94.95-0.08L99.92-0.08 99.92 3.71 94.22 3.71 91.16 0.65 91.16-12.87 87.86-12.87 87.86-16.62 91.16-16.62 91.16-21.63 94.95-21.63 94.95-16.62 99.92-16.62 99.92-12.87 94.95-12.87 94.95-0.08ZM115.68-13.73L115.68-3.91 105.99-3.91 105.99-0.12 115.68-0.12 115.68 3.67 105.17 3.67 102.16 0.61 102.16-13.73 105.17-16.7 112.71-16.7 115.68-13.73ZM105.99-12.95L105.99-7.25 111.89-7.25 111.89-12.95 105.99-12.95ZM128.47-16.74L131.49-13.73 131.49 0.57 128.47 3.58 117.96 3.58 117.96-26.19 121.79-26.19 121.79-16.74 128.47-16.74ZM127.7-12.95L121.79-12.95 121.79-0.16 127.7-0.16 127.7-12.95ZM144.36-16.82L147.37-13.77 147.37 0.65 144.36 3.71 136.82 3.71 133.77 0.65 133.77-13.77 136.82-16.82 144.36-16.82ZM143.63-0.08L143.63-13.03 137.6-13.03 137.6-0.08 143.63-0.08ZM160.16-16.82L163.18-13.77 163.18 0.65 160.16 3.71 152.63 3.71 149.57 0.65 149.57-13.77 152.63-16.82 160.16-16.82ZM159.43-0.08L159.43-13.03 153.4-13.03 153.4-0.08 159.43-0.08ZM174.42 3.71L169.21-5.58 169.21 3.71 165.38 3.71 165.38-26.56 169.21-26.56 169.21-9.57 174.58-17.47 178.86-17.47 178.86-17.43 172.67-7.74 178.82 3.71 174.42 3.71ZM178.86 3.79L178.86 3.71 178.82 3.71 178.86 3.79Z" transform="translate(-1.100000023841858, 26.559999465942383)"></path></g> <!----> <!----> <!----> <!----> <!----> <!----> <!----></g></g> <g data-gra="path-slogan" fill-rule="" class="tp-slogan iconsvg-slogansvg" fill="#02000b" transform="translate(-0.29000091552734375,36.35000038146973)"><rect width="0"></rect> <rect x="181.33999633789062" width="0"></rect> <g transform="translate(0,0)"><g transform="scale(1)"><path d="M0.83-8.02L1.93-8.02L1.93-0.96L6.00-0.96L6.00 0L0.83 0L0.83-8.02ZM12.35 0L11.56-2.32L8.32-2.32L7.49 0L6.40 0L9.42-8.02L10.64-8.02L13.54 0L12.35 0ZM9.94-6.83L8.67-3.29L11.17-3.29L9.99-6.83L9.94-6.83ZM20.98-8.02L17.96-3.24L17.96 0L16.87 0L16.87-3.24L13.84-8.02L15.11-8.02L17.39-4.16L19.71-8.02L20.98-8.02ZM29.66-8.02L29.66 0L28.61 0L28.61-4.73Q28.61-5.39 28.61-6.75L28.61-6.75L26.33 0L25.23 0L23.00-6.75L22.95-6.75Q22.95-6.26 23.00-5.30L23.00-5.30Q23.00-4.82 23.00-4.73L23.00-4.73L23.00 0L21.90 0L21.90-8.02L23.48-8.02L25.80-1.23L28.08-8.02L29.66-8.02ZM32.46-0.96L37.28-0.96L37.28 0L31.37 0L31.37-8.02L37.19-8.02L37.19-7.10L32.46-7.10L32.46-4.60L36.84-4.60L36.84-3.64L32.46-3.64L32.46-0.96ZM40.00-8.02L44.03-1.53L44.03-8.02L45.08-8.02L45.08 0L43.85 0L39.78-6.48L39.73-6.48L39.73 0L38.68 0L38.68-8.02L40.00-8.02ZM49.85-8.02L50.95-8.02L50.95-0.96L55.02-0.96L55.02 0L49.85 0L49.85-8.02ZM57.30-0.96L62.12-0.96L62.12 0L56.20 0L56.20-8.02L62.03-8.02L62.03-7.10L57.30-7.10L57.30-4.60L61.68-4.60L61.68-3.64L57.30-3.64L57.30-0.96ZM68.82 0L68.03-2.32L64.79-2.32L63.96 0L62.86 0L65.88-8.02L67.11-8.02L70.00 0L68.82 0ZM66.41-6.83L65.14-3.29L67.64-3.29L66.45-6.83L66.41-6.83ZM74.82-3.46L72.19-3.46L72.19 0L71.10 0L71.10-8.02L74.82-8.02Q77.49-8.02 77.49-5.87L77.49-5.87Q77.49-4.56 76.35-3.94L76.35-3.94Q77.32-3.68 77.32-2.41L77.32-2.41L77.41-0.96Q77.36-0.35 77.80-0.18L77.80-0.18L77.80 0L76.44 0Q76.31-0.57 76.27-2.02L76.27-2.02Q76.31-3.46 74.82-3.46L74.82-3.46ZM74.91-7.14L72.19-7.14L72.19-4.38L74.73-4.38Q76.35-4.38 76.35-5.78L76.35-5.78Q76.35-7.14 74.91-7.14L74.91-7.14ZM80.34-8.02L84.37-1.53L84.37-8.02L85.42-8.02L85.42 0L84.20 0L80.12-6.48L80.08-6.48L80.08 0L79.03 0L79.03-8.02L80.34-8.02ZM93.48 0L90.24 0L90.24-8.02L93.53-8.02Q96.77-7.84 96.90-4.12L96.90-4.12Q96.72-0.09 93.48 0L93.48 0ZM93.35-7.14L91.34-7.14L91.34-0.92L93.44-0.92Q95.72-1.05 95.80-4.03L95.80-4.03Q95.76-7.05 93.35-7.14L93.35-7.14ZM99.48-0.96L104.30-0.96L104.30 0L98.39 0L98.39-8.02L104.22-8.02L104.22-7.10L99.48-7.10L99.48-4.60L103.86-4.60L103.86-3.64L99.48-3.64L99.48-0.96ZM106.93-0.96L111.75-0.96L111.75 0L105.84 0L105.84-8.02L111.66-8.02L111.66-7.10L106.93-7.10L106.93-4.60L111.31-4.60L111.31-3.64L106.93-3.64L106.93-0.96ZM116.57-7.14L114.38-7.14L114.38-4.34L116.52-4.34Q118.19-4.34 118.19-5.78L118.19-5.78Q118.19-7.10 116.57-7.14L116.57-7.14ZM116.92-3.37L114.38-3.37L114.38 0L113.28 0L113.28-8.02L116.92-8.02Q119.20-7.93 119.28-5.78L119.28-5.78Q119.15-3.46 116.92-3.37L116.92-3.37ZM123.71-8.02L124.80-8.02L124.80-0.96L128.88-0.96L128.88 0L123.71 0L123.71-8.02ZM131.16-0.96L135.97-0.96L135.97 0L130.06 0L130.06-8.02L135.89-8.02L135.89-7.10L131.16-7.10L131.16-4.60L135.54-4.60L135.54-3.64L131.16-3.64L131.16-0.96ZM142.68 0L141.89-2.32L138.65-2.32L137.81 0L136.72 0L139.74-8.02L140.97-8.02L143.86 0L142.68 0ZM140.27-6.83L139.00-3.29L141.49-3.29L140.31-6.83L140.27-6.83ZM148.68-3.46L146.05-3.46L146.05 0L144.95 0L144.95-8.02L148.68-8.02Q151.35-8.02 151.35-5.87L151.35-5.87Q151.35-4.56 150.21-3.94L150.21-3.94Q151.18-3.68 151.18-2.41L151.18-2.41L151.26-0.96Q151.22-0.35 151.66-0.18L151.66-0.18L151.66 0L150.30 0Q150.17-0.57 150.12-2.02L150.12-2.02Q150.17-3.46 148.68-3.46L148.68-3.46ZM148.77-7.14L146.05-7.14L146.05-4.38L148.59-4.38Q150.21-4.38 150.21-5.78L150.21-5.78Q150.21-7.14 148.77-7.14L148.77-7.14ZM154.20-8.02L158.23-1.53L158.23-8.02L159.28-8.02L159.28 0L158.05 0L153.98-6.48L153.94-6.48L153.94 0L152.88 0L152.88-8.02L154.20-8.02ZM161.12-8.02L162.21-8.02L162.21 0L161.12 0L161.12-8.02ZM165.37-8.02L169.40-1.53L169.40-8.02L170.45-8.02L170.45 0L169.22 0L165.15-6.48L165.11-6.48L165.11 0L164.05 0L164.05-8.02L165.37-8.02ZM178.12-3.37L175.66-3.37L175.66-4.29L179.17-4.29L179.17 0L178.47 0L178.20-1.01Q177.28 0.09 175.58 0.13L175.58 0.13Q173.95 0.13 173.08-0.70L173.08-0.70Q171.76-1.93 171.81-4.07L171.81-4.07Q172.11-8.06 175.62-8.24L175.62-8.24Q178.60-8.06 179.04-5.61L179.04-5.61L177.98-5.61Q177.55-7.27 175.58-7.32L175.58-7.32Q173.08-7.14 172.95-4.03L172.95-4.03Q172.95-0.70 175.62-0.70L175.62-0.70Q176.58-0.70 177.28-1.23L177.28-1.23Q178.16-1.93 178.12-3.37L178.12-3.37Z" transform="translate(-0.8323192990995375, 8.235580433195425)"></path></g></g></g></g></g><defs v-gra="od"></defs></svg>