<svg data-v-0dd9719b="" version="1.0" xmlns="http://www.w3.org/2000/svg" xmlns:xlink="http://www.w3.org/1999/xlink" width="100%" height="100%" viewBox="0 0 340.000000 250.000000" preserveAspectRatio="xMidYMid meet" color-interpolation-filters="sRGB" style="margin: auto;">   <g data-v-0dd9719b="" class="iconmbgsvg" transform="translate(113.75,61.54392623901367)"><g fill="#000000" hollow-target="textNormalTran"><g opacity="0.55"><g><rect fill="#000000" fill-opacity="0" stroke-width="2" x="0" y="0" width="112.5" height="126.91214295383782" class="image-rect"></rect> <svg x="0" y="0" width="112.5" height="126.91214295383782" filtersec="colorsb5750287942" class="image-svg-svg primary" style="overflow: visible;"><svg xmlns="http://www.w3.org/2000/svg" viewBox="-0.001999814063310623 -0.0007581710815429688 96.78150177001953 109.17969512939453"><title>资源 152</title><path d="M82.17 53.54h-6a2.45 2.45 0 0 1-2.86-2.39 29.47 29.47 0 0 0-2.95-9c-1-2-2.33-2.84-4.62-2.28-1.76.43-3.62.51-5.42.78s-2.54-.29-1.48-2.11c3.63-6.26 7.28-12.51 10.85-18.81.88-1.55 1.8-1.76 3.16-.68 2.74 2.17 5.6 4.19 7.73 7 .92 1.23 1.59 2 2.88.09 1.86-2.7 5.74-3.53 8.77-2.29a7.44 7.44 0 0 1 4.48 7.87 7.14 7.14 0 0 1-6.2 6.26c-1.85.24-2.19.71-1.54 2.48a35 35 0 0 1 2.16 9.71c.2 2.82-.22 3.24-3 3.29-1.97.11-3.96.08-5.96.08z" fill="#ed2d24"></path><path d="M78.09 55.59c3.42 0 6.84.06 10.25 0 2.22 0 3 1 2.79 3a38.1 38.1 0 0 1-2.26 10c-.66 1.71-.3 2.32 1.61 2.48a6.68 6.68 0 0 1 6.1 5.69 7.33 7.33 0 0 1-4 8.11 6.68 6.68 0 0 1-8.41-1.59c-1.74-2.26-2.66-1.51-4.1.12a39.72 39.72 0 0 1-7 6.38c-1.36 1-2.4.86-3.28-.67-2.23-3.9-4.47-7.8-6.78-11.66-.71-1.17-.51-1.87.54-2.72a28.86 28.86 0 0 0 6.75-7.64 3.2 3.2 0 0 0-.25-4.09c-1.32-1.61-2.6-3.25-3.82-4.94s-1-2.35 1.12-2.4c3.58-.09 7.16 0 10.74 0z" fill="#f7941d"></path><path d="M41 101.61a3.73 3.73 0 0 1 .25-1.6c1.7-2.87-.07-3.26-2.33-3.63a40.32 40.32 0 0 1-9-3c-1.47-.6-1.91-1.39-1-2.86 2.22-3.72 4.4-7.46 6.51-11.23.84-1.5 1.84-2 3.47-1.28a24.77 24.77 0 0 0 9 1.68c2.15.07 3.65-.51 4.32-2.8a50 50 0 0 1 2.23-5.56c.51-1.16 1.23-1.33 1.94-.12l11.18 19.27c.85 1.46.24 2.3-1.12 3A34.63 34.63 0 0 1 57 96.52c-2.05.34-2.65.87-1.77 3 1.16 2.88.3 5.6-2 7.7a6.88 6.88 0 0 1-7.91 1.22 7 7 0 0 1-4.32-6.83z" fill="#2bb17a"></path><path d="M18.63 53.17c-3.41 0-6.83-.11-10.24 0-2.42.1-3.09-1-2.83-3.16a40.8 40.8 0 0 1 2.19-9.71c.51-1.36.51-2-1.28-2.29-3.61-.5-6.08-3-6.41-6-.4-3.7 1.15-6.62 4.23-8a7.33 7.33 0 0 1 8.89 2.48c1.1 1.41 1.76 1.14 2.63 0a38.14 38.14 0 0 1 7.44-7c1.75-1.29 2.75-1.39 3.84.7 1.92 3.59 4 7.1 6.13 10.59 1 1.63 1 2.77-.73 4a24.79 24.79 0 0 0-6.4 7.58 2.73 2.73 0 0 0 .31 3.6c1.44 1.72 2.79 3.52 4.18 5.28 1.07 1.34.62 1.93-1 1.94h-11z" fill="#7233d6"></path><path d="M48.51 0a7 7 0 0 1 6.59 9.59c-.82 2.14-.14 2.62 1.7 2.88 3.33.47 6.39 1.82 9.49 3 1.72.68 2.12 1.65 1.16 3.26-2.21 3.73-4.4 7.46-6.52 11.23-.78 1.39-1.67 1.57-3.08 1a27.54 27.54 0 0 0-10-1.9 2.91 2.91 0 0 0-3.21 2.15c-.71 2-1.59 4-2.4 6-.56 1.37-1.23 1.82-2.14.25-3.68-6.33-7.33-12.68-11-19-1-1.63-.31-2.39 1.19-3a42.73 42.73 0 0 1 10-3.11c1.59-.24 2-.74 1.37-2.47C39.65 4.71 43.07-.07 48.51 0z" fill="#f465d2"></path><path d="M14.47 55.63h5.74c1.91 0 2.71.75 3 2.61a24.82 24.82 0 0 0 3.33 9.34 3.2 3.2 0 0 0 3.9 1.73c2.12-.42 4.28-.57 6.43-.84 1.18-.14 1.61.22.95 1.38L26.6 89.32c-.82 1.44-1.8 1.08-2.9.32A42.74 42.74 0 0 1 15.48 82c-.91-1.06-1.33-1.13-2.17.09C11.1 85.33 8 86.28 4.63 85 1.51 83.78-.2 80.8.12 77.17a7 7 0 0 1 6.35-6.06c1.89-.24 2-1 1.41-2.44A42.48 42.48 0 0 1 5.62 59c-.3-2.24.63-3.32 2.86-3.32h6z" fill="#35bee8"></path></svg></svg> <!----></g></g> <g transform="translate(36.81500053405762,40.67107391357422)"><g data-gra="path-name" fill-rule="" class="tp-name"><g transform="scale(1)"><g><path d="M13.71 0.07L4.62 0.07Q4.55 0.07 4.55 0L4.55 0 4.55-45.44Q4.55-45.5 4.62-45.5L4.62-45.5 25.68-45.5Q29.32-45.5 32.56-44.1 35.81-42.7 38.22-40.3 40.63-37.9 42.02-34.65 43.42-31.39 43.42-27.69L43.42-27.69Q43.42-23.21 41.34-19.3 39.26-15.41 35.49-12.87L35.49-12.87 43.42 0 43.42 0 43.42 0.07 32.7 0.07 32.7 0 26.52-9.95Q26.07-9.88 25.68-9.88L25.68-9.88 13.71-9.88 13.71 0Q13.71 0.07 13.71 0.07L13.71 0.07ZM30.62-20.67L30.62-20.67Q32.3-21.91 33.28-23.76 34.26-25.61 34.26-27.69L34.26-27.69Q34.26-29.51 33.57-31.07 32.89-32.63 31.72-33.8 30.55-34.97 28.99-35.65 27.43-36.34 25.68-36.34L25.68-36.34 13.71-36.34 13.71-19.11 25.68-19.11Q28.41-19.11 30.62-20.67Z" transform="translate(-4.550000190734863, 45.5)"></path></g> <!----> <!----> <!----> <!----> <!----> <!----> <!----></g></g> <!----></g></g></g><defs v-gra="od"></defs></svg>