<svg data-v-0dd9719b="" version="1.0" xmlns="http://www.w3.org/2000/svg" xmlns:xlink="http://www.w3.org/1999/xlink" width="100%" height="100%" viewBox="0 0 340.000000 250.000000" preserveAspectRatio="xMidYMid meet" color-interpolation-filters="sRGB" style="margin: auto;"> <rect data-v-0dd9719b="" x="0" y="0" width="100%" height="100%" fill="#ffffff" fill-opacity="1" class="background"></rect> <rect data-v-0dd9719b="" x="0" y="0" width="100%" height="100%" fill="url(#watermark)" fill-opacity="1" class="watermarklayer"></rect> <g data-v-0dd9719b="" class="iconmbgsvg" transform="translate(82.09000396728516,69.71635818481445)"><g fill="#000000" hollow-target="textNormalTran"><g opacity="0.55" transform="translate(31.659992218017578,0)"><g><rect fill="#000000" fill-opacity="0" stroke-width="2" x="0" y="0" width="112.5" height="110.56728387781578" class="image-rect"></rect> <svg x="0" y="0" width="112.5" height="110.56728387781578" filtersec="colorsb1717916445" class="image-svg-svg primary" style="overflow: visible;"><svg xmlns="http://www.w3.org/2000/svg" viewBox="-0.005268055945634842 -0.029219111427664757 77.6743392944336 76.33973693847656"><title>资源 21</title><path d="M69 40.62a19.31 19.31 0 0 1 7.75 22 19.52 19.52 0 0 1-37.64-1.4c-.2-.88-.26-1.79-.38-2.69.83-.83 1.85-.5 2.81-.45 12 .6 21.12-4.88 26.16-15.73.3-.67.53-1.41 1.3-1.73z" fill="#e98043"></path><path d="M24.05 48.69C15.82 50.2 6.91 45.76 2.6 38a21.15 21.15 0 0 1 2.79-24.28c6.86-7.5 17.12-9.14 26.24-4.18-.11 1-.94 1.31-1.61 1.74C17.55 19.24 15 36.91 23.65 47.8a2.06 2.06 0 0 1 .4.89z" fill="#5982f6"></path><path d="M24.05 48.69a2.59 2.59 0 0 1-2-1.29c-8.22-11.87-4.7-29.27 7.53-36.93a17.49 17.49 0 0 1 2-.93A21.06 21.06 0 0 1 24 48.69z" fill="#a5e9ef"></path><path d="M69 40.62c-2 7.82-7.32 12.85-14.27 16.19a24.39 24.39 0 0 1-16 1.72c-.66-8.25 2.63-14.63 9.68-18.7 6.87-3.96 13.89-3.72 20.59.79z" fill="#fac540"></path><path d="M50.05 6.77A14.63 14.63 0 0 1 65.76.36a15.13 15.13 0 0 1 11.56 12.56 14.69 14.69 0 0 1-7.27 14.9c-1-.41-1.13-1.36-1.39-2.21A25.27 25.27 0 0 0 52.1 8.32c-.83-.32-1.79-.46-2.05-1.55z" fill="#aa49f4"></path><path d="M50.05 6.77c9 2.49 15.5 7.87 18.82 16.76.51 1.38.79 2.86 1.18 4.29a14.65 14.65 0 0 1-18.57-2.54 14.75 14.75 0 0 1-1.43-18.51z" fill="#ce94c9"></path></svg></svg> <!----></g></g> <g transform="translate(0,35.28489112854004)"><g data-gra="path-name" fill-rule="" class="tp-name" transform="translate(0,0)"><g transform="scale(1)"><g><path d="M1.99-22.84L1.99-18.57 9.99-18.57C13.87-18.57 16.77-17.07 16.77-11.42 16.77-5.74 13.9-4.31 10.02-4.31L1.99-4.31 1.99 0 11.42 0C18.37 0 21.41-4.96 21.41-11.42 21.41-17.92 18.37-22.84 11.42-22.84ZM35.6-22.84L30.02-22.84 21.83 0 26.6 0 32.66-18.11 32.99-18.11 39.49 0 44.58 0ZM54.92-10.08L47.77-22.84 42.72-22.84 50.51-9.14 50.51 0 54.92 0ZM56.39-12.3L62.92-22.84 57.92-22.84 54.04-16.15ZM65.07-22.84L65.07-18.57 73.06-18.57C76.95-18.57 79.85-17.07 79.85-11.42 79.85-5.74 76.98-4.31 73.1-4.31L65.07-4.31 65.07 0 74.5 0C81.45 0 84.49-4.96 84.49-11.42 84.49-17.92 81.45-22.84 74.5-22.84ZM88.01 0L92.41 0 92.41-8.06 97.54-8.06 101.81 0 106.77 0 101.45-8.81C104.23-10.18 105.47-13.18 105.47-15.63 105.47-20.23 102.6-22.84 97.44-22.84L88.01-22.84 88.01-18.99 96.95-18.99C99.89-18.99 101.32-17.78 101.32-15.53 101.32-13.12 99.63-11.72 96.98-11.72L88.01-11.72ZM125.8-18.57L125.8-22.84 108.89-22.84 108.89-18.57ZM125.8-9.4L125.8-13.44 108.89-13.44 108.89-9.4ZM108.89 0L125.8 0 125.8-4.31 108.89-4.31ZM141.72-22.84L136.14-22.84 127.95 0 132.72 0 138.79-18.11 139.11-18.11 145.61 0 150.7 0ZM163.65-2.97L166.69-2.97 173.25-14.62 173.41-14.62 173.41 0 177.81 0 177.81-22.84 173.34-22.84 165.45-8.26 165.32-8.26 157.48-22.84 153.08-22.84ZM153.08 0L157.35 0 157.35-8.97 153.08-17Z" transform="translate(-1.9900000095367432, 22.84000015258789)"></path></g> <!----> <!----> <!----> <!----> <!----> <!----> <!----></g></g> <g data-gra="path-slogan" fill-rule="" class="tp-slogan" fill="#000000" transform="translate(5.000007629394531,28.84000015258789)"><rect x="0" height="1" y="5.080000877380371" width="32.42499542236328"></rect> <rect height="1" y="5.080000877380371" width="32.42499542236328" x="133.3949966430664"></rect> <g transform="translate(35.42499542236328,0)"><g transform="scale(1)"><path d="M3.66-9.70L3.66-9.70Q4.50-9.75 4.78-9.61L4.78-9.61Q4.64-9.38 4.64-8.48L4.64-8.48L7.17-8.48Q7.17-9.38 7.13-9.70L7.13-9.70Q8.39-9.70 8.25-9.61L8.25-9.61Q8.06-9.28 8.06-8.48L8.06-8.48L9.89-8.48Q10.08-8.48 10.69-8.58L10.69-8.58Q11.11-8.63 11.30-8.63L11.30-8.63L11.30-7.55Q10.78-7.64 9.89-7.64L9.89-7.64L8.06-7.64Q8.06-7.27 8.16-6.89L8.16-6.89L7.08-6.89Q7.17-7.17 7.17-7.64L7.17-7.64L4.64-7.64Q4.64-7.50 4.73-6.94L4.73-6.94L3.66-6.94Q3.75-7.41 3.75-7.64L3.75-7.64L2.20-7.64Q1.17-7.64 0.66-7.55L0.66-7.55L0.66-8.58Q1.69-8.48 2.11-8.48L2.11-8.48L3.80-8.48Q3.80-9.19 3.66-9.70ZM5.39-7.22L5.39-7.22Q6.14-7.13 6.56-6.98L6.56-6.98Q6.52-6.89 6.42-6.70L6.42-6.70Q6.28-6.47 6.23-6.33L6.23-6.33L8.72-6.33Q9.05-6.33 9.75-6.42L9.75-6.42Q9.47-4.64 9.23-4.27L9.23-4.27Q8.72-3.75 7.13-3.80L7.13-3.80Q7.17-4.27 6.70-4.83L6.70-4.83Q7.73-4.59 8.20-4.78L8.20-4.78Q8.53-4.88 8.63-5.58L8.63-5.58L6.05-5.58Q5.20-3.80 1.88-3.52L1.88-3.52Q1.78-3.89 1.22-4.45L1.22-4.45Q4.17-4.31 5.11-5.58L5.11-5.58L3.61-5.58Q2.48-5.58 2.06-5.44L2.06-5.44L2.06-6.47Q2.72-6.33 3.61-6.33L3.61-6.33L5.39-6.33Q5.48-6.94 5.39-7.22ZM7.73-3.70L7.73-3.70Q9.14-3.52 9.09-3.47L9.09-3.47Q8.81-3.14 8.77-2.81L8.77-2.81L10.03-2.81Q10.17-2.81 10.92-2.91L10.92-2.91Q10.83-0.19 10.73 0.09L10.73 0.09Q10.59 0.84 8.86 0.98L8.86 0.98Q8.81 0.42 8.30 0L8.30 0Q9.66 0.05 9.70-0.19L9.70-0.19Q9.84-0.70 9.94-2.06L9.94-2.06L8.67-2.06Q8.06 0.42 6.52 1.17L6.52 1.17Q6.19 0.80 5.53 0.52L5.53 0.52Q7.27 0.09 7.73-2.06L7.73-2.06L7.45-2.06Q6.94-2.11 6.28-1.97L6.28-1.97L6.28-2.91Q7.13-2.81 7.50-2.81L7.50-2.81L7.78-2.81Q7.78-2.81 7.78-2.95L7.78-2.95Q7.83-3.47 7.73-3.70ZM2.91-3.56L2.91-3.56Q3.52-3.56 4.13-3.47L4.13-3.47Q4.08-3.42 3.94-3.05L3.94-3.05Q3.89-2.86 3.84-2.81L3.84-2.81L5.06-2.81Q5.63-2.81 5.95-2.91L5.95-2.91Q5.77 0.09 5.58 0.05L5.58 0.05Q5.44 0.38 4.03 0.70L4.03 0.70Q3.98 0.19 3.56-0.23L3.56-0.23Q4.59-0.09 4.88-0.56L4.88-0.56Q4.97-0.84 5.02-2.06L5.02-2.06L3.75-2.06Q3 0.19 1.59 1.08L1.59 1.08Q1.17 0.70 0.56 0.42L0.56 0.42Q2.39-0.14 2.86-2.06L2.86-2.06L2.30-2.06Q1.36-2.06 0.89-1.97L0.89-1.97L0.89-2.91Q1.69-2.81 2.25-2.81L2.25-2.81L2.91-2.81Q2.95-3.09 2.91-3.56ZM14.53-9.47L14.53-9.47Q15.56-9.47 15.70-9.28L15.70-9.28Q15.70-9.28 15.66-9.23L15.66-9.23Q15.42-9 15.42-8.81L15.42-8.81L15.42-7.08L15.75-7.08Q16.55-7.08 16.97-7.17L16.97-7.17L16.97-6.19Q16.45-6.28 15.80-6.28L15.80-6.28L15.42-6.28L15.42-4.64L16.27-5.02Q17.02-3.94 17.34-3.28L17.34-3.28L16.36-2.77Q15.94-3.80 15.42-4.36L15.42-4.36L15.42-0.66Q15.42 0.19 15.52 0.75L15.52 0.75Q15.52 0.84 15.52 0.84L15.52 0.84L14.44 0.84Q14.53 0.66 14.53-0.66L14.53-0.66L14.53-4.22Q14.02-2.86 13.22-1.64L13.22-1.64Q13.03-2.02 12.42-2.58L12.42-2.58Q13.59-3.52 14.53-6.28L14.53-6.28L14.25-6.28Q13.45-6.28 12.84-6.19L12.84-6.19L12.84-7.17Q13.03-7.08 14.25-7.08L14.25-7.08L14.53-7.08L14.53-8.67Q14.53-9 14.48-9.33L14.48-9.33Q14.48-9.52 14.53-9.47ZM19.22-9.42L19.22-9.42Q20.11-9.42 20.44-9.28L20.44-9.28Q20.44-9.23 20.34-9.09L20.34-9.09Q20.16-8.86 20.16-8.72L20.16-8.72L20.16-7.64L21.33-7.64Q22.55-7.64 22.88-7.73L22.88-7.73L22.88-6.70Q22.59-6.80 21.33-6.80L21.33-6.80L20.16-6.80L20.16-5.16L21.09-5.16Q21.33-5.16 21.70-5.20L21.70-5.20Q22.13-5.20 22.27-5.25L22.27-5.25Q21.66-2.72 20.30-1.27L20.30-1.27Q21.80-0.52 23.39-0.28L23.39-0.28Q22.88 0.05 22.59 0.80L22.59 0.80Q20.58 0.09 19.59-0.70L19.59-0.70Q18.47 0.05 16.69 0.84L16.69 0.84Q16.31 0.28 15.66 0L15.66 0Q17.44-0.28 18.94-1.36L18.94-1.36Q18.14-2.44 17.63-4.03L17.63-4.03L18.33-4.36Q17.63-4.36 17.11-4.27L17.11-4.27L17.11-5.25Q17.44-5.16 18.56-5.16L18.56-5.16L19.27-5.16L19.27-6.80L18.66-6.80Q17.86-6.80 17.16-6.70L17.16-6.70L17.16-7.73Q17.39-7.59 18.61-7.59L18.61-7.59L19.27-7.59L19.27-8.63Q19.27-9 19.22-9.33L19.22-9.33Q19.17-9.42 19.22-9.42ZM20.95-4.36L18.61-4.36Q18.94-2.77 19.69-1.92L19.69-1.92Q20.63-2.91 20.95-4.36L20.95-4.36ZM33.33-9.56L33.33-9.56Q34.64-9.56 34.59-9.47L34.59-9.47Q34.59-9.42 34.55-9.33L34.55-9.33Q34.31-9 34.31-8.48L34.31-8.48L34.31-7.08Q34.88-7.08 35.58-7.17L35.58-7.17L35.58-6.19Q34.97-6.28 34.31-6.28L34.31-6.28L34.31-0.14Q34.31 0.84 32.44 0.98L32.44 0.98Q32.34 0.42 32.02 0L32.02 0Q31.88-0.14 31.92-0.19L31.92-0.19Q33.52 0.05 33.42-0.70L33.42-0.70L33.42-6.28L32.77-6.28Q32.16-6.28 31.59-6.19L31.59-6.19L31.59-7.17Q32.02-7.08 32.72-7.08L32.72-7.08L33.42-7.08L33.42-8.63Q33.42-8.95 33.33-9.56ZM26.06-9.56L26.06-9.56Q27.05-9.61 27.33-9.42L27.33-9.42Q27.33-9.38 27.28-9.28L27.28-9.28Q27.05-9 27.05-8.48L27.05-8.48L27.05-7.17Q27.38-7.17 28.03-7.22L28.03-7.22L28.03-6.28Q27.42-6.33 27.05-6.33L27.05-6.33L27.05-4.69L27.70-5.06Q28.17-4.41 28.59-3.52L28.59-3.52L27.80-3.09Q27.52-3.89 27.05-4.41L27.05-4.41L27.05-0.66Q27.05 0.47 27.14 1.03L27.14 1.03L26.02 1.03Q26.11 0.66 26.11-0.61L26.11-0.61L26.11-4.27Q25.59-2.44 25.08-1.55L25.08-1.55Q24.89-2.11 24.33-2.44L24.33-2.44Q25.41-3.84 26.02-6.38L26.02-6.38L25.78-6.38Q25.41-6.38 24.61-6.28L24.61-6.28L24.61-7.22Q25.17-7.13 25.73-7.13L25.73-7.13L26.11-7.13L26.11-8.81Q26.11-9.23 26.06-9.52L26.06-9.52Q26.06-9.56 26.06-9.56ZM28.22-7.13L28.22-8.16Q29.02-8.06 29.44-8.06L29.44-8.06L30.38-8.06Q30.80-8.06 31.36-8.11L31.36-8.11Q31.08-5.11 30.52-3.84L30.52-3.84Q31.41-2.39 31.88-1.59L31.88-1.59L30.89-1.03Q30.38-2.39 30.09-2.77L30.09-2.77Q29.39-1.36 28.50-0.28L28.50-0.28Q28.08-0.66 27.52-0.89L27.52-0.89Q28.92-2.06 29.58-3.61L29.58-3.61Q29.06-4.55 28.27-5.53L28.27-5.53L29.06-6.05L30-4.69Q30.28-5.48 30.28-7.22L30.28-7.22L29.44-7.22Q29.02-7.22 28.22-7.13L28.22-7.13ZM31.41-5.06L32.25-5.20Q32.58-4.45 32.81-2.91L32.81-2.91L31.83-2.77Q31.88-3.66 31.41-5.06L31.41-5.06ZM36.84-7.88L36.84-8.95Q38.02-8.86 38.81-8.86L38.81-8.86L44.91-8.86Q46.41-8.91 47.25-8.95L47.25-8.95L47.25-7.88Q46.73-7.92 44.91-7.92L44.91-7.92L42.23-7.92L42.23-1.64Q42.23-0.14 42.33 0.84L42.33 0.84L41.11 0.84Q41.16 0 41.20-1.64L41.20-1.64L41.20-7.92L38.81-7.92Q37.69-7.92 36.84-7.88L36.84-7.88ZM42.70-5.34L43.45-6.19Q45.33-4.73 46.73-3.33L46.73-3.33L45.80-2.39Q44.39-4.03 42.70-5.34L42.70-5.34ZM55.41-9.75L55.41-9.75Q56.67-9.38 56.67-9.23L56.67-9.23Q56.67-9.19 56.58-9.14L56.58-9.14Q56.39-9.05 56.34-8.86L56.34-8.86Q55.92-8.16 55.69-7.41L55.69-7.41L57.42-7.41Q58.45-7.41 59.02-7.45L59.02-7.45Q58.64-1.31 58.55-0.23L58.55-0.23Q58.41 1.08 55.97 1.17L55.97 1.17Q55.83 0.47 55.41-0.05L55.41-0.05Q56.67 0.19 57.33-0.09L57.33-0.09Q57.66-0.05 57.80-4.27L57.80-4.27Q57.89-5.77 57.94-6.66L57.94-6.66L55.36-6.66Q54.89-5.77 54.23-4.59L54.23-4.59Q53.81-4.88 53.39-4.97L53.39-4.97L53.39-0.75Q53.39 0.42 53.44 0.75L53.44 0.75L52.36 0.75Q52.41 0.33 52.41-0.38L52.41-0.38L50.11-0.38Q50.11 0.33 50.16 0.84L50.16 0.84L49.08 0.84Q49.13 0.42 49.13-0.70L49.13-0.70L49.13-5.72Q49.13-5.91 49.08-6.61L49.08-6.61Q49.08-7.22 49.08-7.36L49.08-7.36Q49.78-7.31 50.11-7.31L50.11-7.31L50.44-7.31Q50.58-8.06 50.67-9.61L50.67-9.61Q51.98-9.47 51.89-9.28L51.89-9.28Q51.89-9.19 51.80-9.09L51.80-9.09Q51.70-9 51.66-8.86L51.66-8.86Q51.52-8.53 51.38-7.92L51.38-7.92Q51.28-7.55 51.23-7.31L51.23-7.31L52.03-7.31Q52.41-7.31 53.44-7.36L53.44-7.36Q53.39-7.03 53.39-5.86L53.39-5.86L53.39-5.20Q54.84-6.84 55.41-9.75ZM52.41-6.56L50.11-6.56L50.11-4.13L52.41-4.13L52.41-6.56ZM54.61-4.17L55.41-4.64Q55.69-4.27 56.39-2.91L56.39-2.91Q56.58-2.63 56.63-2.48L56.63-2.48L55.73-2.02Q55.59-2.58 54.61-4.17L54.61-4.17ZM52.41-3.42L50.11-3.42L50.11-1.13L52.41-1.13L52.41-3.42ZM64.59-9.56L64.59-9.56Q66.05-9.42 66.05-9.28L66.05-9.28Q66.05-9.23 65.86-9L65.86-9Q65.20-8.34 64.92-7.55L64.92-7.55L68.81-7.55Q69.61-7.55 70.22-7.64L70.22-7.64Q70.13-7.45 70.13-6.38L70.13-6.38L70.13-0.66Q70.13 0.38 70.22 0.89L70.22 0.89L69.05 0.89Q69.14 0.52 69.14-0.05L69.14-0.05L69.14-0.33L62.86-0.33L62.86-0.05Q62.86 0.52 62.95 0.89L62.95 0.89L61.78 0.89Q61.88 0.14 61.88-0.80L61.88-0.80L61.88-6.38Q61.88-7.03 61.83-7.64L61.83-7.64Q62.02-7.55 63.14-7.55L63.14-7.55L63.84-7.55Q64.17-8.34 64.59-9.56ZM69.14-6.66L62.86-6.66L62.86-4.41L69.14-4.41L69.14-6.66ZM69.14-3.52L62.86-3.52L62.86-1.22L69.14-1.22L69.14-3.52ZM81.75-8.86L81.75-8.86Q81.66-8.34 81.66-7.08L81.66-7.08L81.66-0.75Q81.66 0 81.75 0.66L81.75 0.66L80.53 0.66Q80.63 0.33 80.63-0.33L80.63-0.33L75.52-0.33Q75.52 0.33 75.61 0.70L75.61 0.70L74.39 0.70Q74.48 0.42 74.48-0.84L74.48-0.84L74.48-7.17Q74.48-8.34 74.39-8.86L74.39-8.86Q75.38-8.77 76.31-8.77L76.31-8.77L79.59-8.77Q80.44-8.77 81.75-8.86ZM80.63-7.92L75.52-7.92L75.52-5.02L80.63-5.02L80.63-7.92ZM80.63-4.13L75.52-4.13L75.52-1.17L80.63-1.17L80.63-4.13ZM87.05-9.94L87.05-9.94Q88.08-9.84 88.22-9.75L88.22-9.75Q88.22-9.70 88.17-9.61L88.17-9.61Q88.03-9.19 87.98-8.86L87.98-8.86L87.98-8.25L88.22-8.25Q88.78-8.20 89.63-8.34L89.63-8.34L89.63-7.31Q89.44-7.36 88.22-7.41L88.22-7.41L87.98-7.41L87.98-5.86Q88.03-4.45 88.08-4.22L88.08-4.22L87.05-4.22Q87.09-4.41 87.14-5.16L87.14-5.16Q87.19-5.77 87.14-5.86L87.14-5.86L87.14-6.94Q86.58-5.48 85.31-4.22L85.31-4.22Q84.94-4.69 84.33-4.92L84.33-4.92Q85.83-5.53 86.58-7.41L86.58-7.41L86.30-7.41Q84.98-7.36 84.89-7.31L84.89-7.31L84.89-8.34Q85.08-8.30 85.73-8.25L85.73-8.25Q86.25-8.20 86.34-8.25L86.34-8.25L87.14-8.25L87.14-8.86Q87.19-9.28 87.05-9.94ZM91.73-9.89L91.73-9.89Q92.72-9.89 92.86-9.70L92.86-9.70Q92.86-9.70 92.86-9.61L92.86-9.61Q92.72-9.28 92.67-8.86L92.67-8.86L92.67-8.25L93.70-8.25Q94.36-8.25 94.92-8.34L94.92-8.34Q95.11-8.39 95.16-8.39L95.16-8.39L95.16-7.31Q95.02-7.36 93.75-7.41L93.75-7.41L93.42-7.41Q93.70-6.19 95.53-5.16L95.53-5.16Q94.92-4.83 94.69-4.31L94.69-4.31Q93.28-5.53 92.67-7.27L92.67-7.27L92.67-5.81Q92.67-4.97 92.72-4.36L92.72-4.36Q92.72-4.27 92.72-4.27L92.72-4.27L91.73-4.27Q91.78-4.55 91.83-5.81L91.83-5.81L91.83-6.89Q91.31-5.48 90.23-4.59L90.23-4.59Q89.91-4.97 89.30-5.20L89.30-5.20Q90.75-6.05 91.31-7.41L91.31-7.41Q90.33-7.36 90.14-7.31L90.14-7.31L90.14-8.34Q90.38-8.30 91.83-8.25L91.83-8.25L91.83-8.77Q91.78-9.80 91.73-9.89ZM88.69-4.83L88.69-4.83Q89.77-4.50 89.95-4.36L89.95-4.36Q89.95-4.31 89.86-4.27L89.86-4.27Q89.48-4.08 89.11-3.70L89.11-3.70L91.97-3.70Q92.63-3.66 93.89-3.80L93.89-3.80Q92.91 0.75 85.69 1.22L85.69 1.22Q85.59 0.66 84.89 0.05L84.89 0.05Q87.19 0.23 89.86-0.52L89.86-0.52Q89.44-0.94 88.50-1.59L88.50-1.59L89.34-2.25L90.84-1.03Q91.83-1.69 92.39-2.81L92.39-2.81L88.55-2.81Q87.56-1.83 86.53-0.98L86.53-0.98Q86.20-1.59 85.59-1.73L85.59-1.73Q87.80-2.81 88.69-4.83ZM88.13-6.38L88.73-6.94Q89.34-6.42 89.72-6L89.72-6L89.06-5.39Q88.59-6.05 88.13-6.38L88.13-6.38Z" transform="translate(-0.5625, 9.9375)"></path></g></g></g></g></g></g><defs v-gra="od"></defs></svg>