<svg data-v-0dd9719b="" version="1.0" xmlns="http://www.w3.org/2000/svg" xmlns:xlink="http://www.w3.org/1999/xlink" width="100%" height="100%" viewBox="0 0 340.000000 250.000000" preserveAspectRatio="xMidYMid meet" color-interpolation-filters="sRGB" style="margin: auto;">   <g data-v-0dd9719b="" class="iconmbgsvg" transform="translate(85.9949951171875,89.24609756470527)"><g fill="#FD9A96" hollow-target="text"><g mask="url(#cc5e050f-7e84-4ace-be41-f1f8258cbb75)"><g><rect fill="#FD9A96" fill-opacity="0" stroke-width="2" x="0" y="0" width="102.5" height="71.50780307099852" class="image-rect"></rect> <svg x="0" y="0" width="102.5" height="71.50780307099852" filtersec="colorsb4576087521" class="image-svg-svg primary" style="overflow: visible;"><svg xmlns="http://www.w3.org/2000/svg" viewBox="-0.00145721435546875 0.0017375946044921875 1490.7723388671875 1040.02099609375"><g><path d="M413.94 1037.16C170.07 1029 104 1011.66 59.15 943.88c-18.14-27.39-38.5-88.67-45-135.42C-8.6 644.41-3 302.32 24.35 184.42 49.13 77.64 107.4 25.33 213.69 14.44 318.1 3.73 590.29-2.1 855 .7c285.83 3 420.39 9.13 469.08 21.31 95.24 23.82 141.44 94 157.55 239.2 3 27.45 6.79 123.3 8.32 213 6.16 362.07-21.08 477.25-124.89 528.11-39.2 19.2-64.84 23.62-175.63 30.23-120.33 7.18-611.37 10.11-775.53 4.63z" fill="#805FF3"></path></g></svg></svg> <!----></g></g> <g transform="translate(0.48999786376953125,20.598899841308594)"><g data-gra="path-name" fill-rule="" class="tp-name"><g transform="scale(1)"><g><path d="M6.21 0Q4.91 0 4.16-0.72 3.42-1.44 3.42-2.75L3.42-2.75 3.42-28.98Q3.42-30.29 4.16-31 4.91-31.72 6.21-31.72L6.21-31.72 15.12-31.72Q22.9-31.72 27.2-27.56 31.5-23.4 31.5-15.88L31.5-15.88Q31.5-8.32 27.2-4.16 22.9 0 15.12 0L15.12 0 6.21 0ZM14.76-4.72Q25.7-4.72 25.7-15.88L25.7-15.88Q25.7-27 14.76-27L14.76-27 9.22-27 9.22-4.72 14.76-4.72ZM65.73-3.65Q66.27-2.83 66.27-2.07L66.27-2.07Q66.27-1.03 65.44-0.36 64.61 0.32 63.48 0.32L63.48 0.32Q62.76 0.32 62.11-0.02 61.45-0.36 61-1.03L61-1.03 55.02-10.13Q54.12-11.56 53.11-12.15 52.09-12.73 50.48-12.73L50.48-12.73 46.06-12.73 46.06-2.65Q46.06-1.3 45.3-0.52 44.53 0.27 43.23 0.27L43.23 0.27Q41.92 0.27 41.14-0.52 40.35-1.3 40.35-2.65L40.35-2.65 40.35-28.98Q40.35-30.29 41.09-31 41.84-31.72 43.14-31.72L43.14-31.72 54.39-31.72Q59.79-31.72 62.6-29.32 65.41-26.91 65.41-22.36L65.41-22.36Q65.41-18.68 63.32-16.31 61.23-13.95 57.41-13.28L57.41-13.28Q58.71-12.96 59.7-12.15 60.69-11.34 61.63-9.9L61.63-9.9 65.73-3.65ZM53.58-17.19Q56.86-17.19 58.39-18.43 59.92-19.66 59.92-22.23L59.92-22.23Q59.92-24.84 58.39-26.03 56.86-27.22 53.58-27.22L53.58-27.22 46.02-27.22 46.02-17.19 53.58-17.19ZM77.41 0Q76.11 0 75.37-0.72 74.63-1.44 74.63-2.75L74.63-2.75 74.63-28.98Q74.63-30.29 75.37-31 76.11-31.72 77.41-31.72L77.41-31.72 93.66-31.72Q94.97-31.72 95.69-31.14 96.41-30.55 96.41-29.47L96.41-29.47Q96.41-28.35 95.69-27.74 94.97-27.13 93.66-27.13L93.66-27.13 80.3-27.13 80.3-18.4 92.76-18.4Q94.06-18.4 94.78-17.82 95.5-17.23 95.5-16.11L95.5-16.11Q95.5-15.03 94.78-14.45 94.06-13.86 92.76-13.86L92.76-13.86 80.3-13.86 80.3-4.59 93.66-4.59Q94.97-4.59 95.69-3.98 96.41-3.38 96.41-2.25L96.41-2.25Q96.41-1.17 95.69-0.58 94.97 0 93.66 0L93.66 0 77.41 0ZM132.34-3.46Q132.61-2.88 132.61-2.29L132.61-2.29Q132.61-1.26 131.78-0.54 130.95 0.18 129.87 0.18L129.87 0.18Q129.15 0.18 128.52-0.2 127.89-0.58 127.53-1.4L127.53-1.4 124.83-7.42 108.99-7.42 106.29-1.4Q105.93-0.58 105.3-0.2 104.67 0.18 103.9 0.18L103.9 0.18Q102.87 0.18 102.01-0.54 101.16-1.26 101.16-2.29L101.16-2.29Q101.16-2.88 101.43-3.46L101.43-3.46 113.85-30.15Q114.25-31.05 115.09-31.52 115.92-31.99 116.86-31.99L116.86-31.99Q117.81-31.99 118.64-31.52 119.47-31.05 119.88-30.15L119.88-30.15 132.34-3.46ZM116.91-25.29L110.97-11.92 122.85-11.92 116.91-25.29ZM168.15-31.95Q169.41-31.95 170.18-31.16 170.94-30.38 170.94-29.07L170.94-29.07 170.94-2.43Q170.94-1.17 170.22-0.45 169.5 0.27 168.33 0.27L168.33 0.27Q167.16 0.27 166.49-0.45 165.81-1.17 165.81-2.43L165.81-2.43 165.81-20.97 158.16-6.48Q157.62-5.49 156.99-5.02 156.36-4.54 155.5-4.54L155.5-4.54Q154.65-4.54 154.02-5 153.39-5.44 152.85-6.48L152.85-6.48 145.16-20.75 145.16-2.43Q145.16-1.21 144.46-0.47 143.76 0.27 142.59 0.27L142.59 0.27Q141.42 0.27 140.75-0.45 140.07-1.17 140.07-2.43L140.07-2.43 140.07-29.07Q140.07-30.38 140.81-31.16 141.56-31.95 142.81-31.95L142.81-31.95Q144.57-31.95 145.56-30.02L145.56-30.02 155.55-10.98 165.5-30.02Q166.49-31.95 168.15-31.95L168.15-31.95Z" transform="translate(-3.4200000762939453, 31.989999771118164)"></path></g> <!----> <!----> <!----> <!----> <!----> <!----> <!----></g></g> <!----></g></g></g><mask id="cc5e050f-7e84-4ace-be41-f1f8258cbb75"><g fill="white"><g><rect fill-opacity="1" stroke-width="2" x="0" y="0" width="102.5" height="71.50780307099852" class="image-rect"></rect> <svg x="0" y="0" width="102.5" height="71.50780307099852" filtersec="colorsb4576087521" class="image-svg-svg primary" style="overflow: visible;"><svg xmlns="http://www.w3.org/2000/svg" viewBox="-0.00145721435546875 0.0017375946044921875 1490.7723388671875 1040.02099609375"><g><path d="M413.94 1037.16C170.07 1029 104 1011.66 59.15 943.88c-18.14-27.39-38.5-88.67-45-135.42C-8.6 644.41-3 302.32 24.35 184.42 49.13 77.64 107.4 25.33 213.69 14.44 318.1 3.73 590.29-2.1 855 .7c285.83 3 420.39 9.13 469.08 21.31 95.24 23.82 141.44 94 157.55 239.2 3 27.45 6.79 123.3 8.32 213 6.16 362.07-21.08 477.25-124.89 528.11-39.2 19.2-64.84 23.62-175.63 30.23-120.33 7.18-611.37 10.11-775.53 4.63z"></path></g></svg></svg> </g></g> <g transform="translate(0.48999786376953125,20.598899841308594)" fill="black" stroke="black" stroke-width="6" stroke-linejoin="round"><g data-gra="path-name" fill-rule="" class="tp-name"><g transform="scale(1)"><g><path d="M6.21 0Q4.91 0 4.16-0.72 3.42-1.44 3.42-2.75L3.42-2.75 3.42-28.98Q3.42-30.29 4.16-31 4.91-31.72 6.21-31.72L6.21-31.72 15.12-31.72Q22.9-31.72 27.2-27.56 31.5-23.4 31.5-15.88L31.5-15.88Q31.5-8.32 27.2-4.16 22.9 0 15.12 0L15.12 0 6.21 0ZM14.76-4.72Q25.7-4.72 25.7-15.88L25.7-15.88Q25.7-27 14.76-27L14.76-27 9.22-27 9.22-4.72 14.76-4.72ZM65.73-3.65Q66.27-2.83 66.27-2.07L66.27-2.07Q66.27-1.03 65.44-0.36 64.61 0.32 63.48 0.32L63.48 0.32Q62.76 0.32 62.11-0.02 61.45-0.36 61-1.03L61-1.03 55.02-10.13Q54.12-11.56 53.11-12.15 52.09-12.73 50.48-12.73L50.48-12.73 46.06-12.73 46.06-2.65Q46.06-1.3 45.3-0.52 44.53 0.27 43.23 0.27L43.23 0.27Q41.92 0.27 41.14-0.52 40.35-1.3 40.35-2.65L40.35-2.65 40.35-28.98Q40.35-30.29 41.09-31 41.84-31.72 43.14-31.72L43.14-31.72 54.39-31.72Q59.79-31.72 62.6-29.32 65.41-26.91 65.41-22.36L65.41-22.36Q65.41-18.68 63.32-16.31 61.23-13.95 57.41-13.28L57.41-13.28Q58.71-12.96 59.7-12.15 60.69-11.34 61.63-9.9L61.63-9.9 65.73-3.65ZM53.58-17.19Q56.86-17.19 58.39-18.43 59.92-19.66 59.92-22.23L59.92-22.23Q59.92-24.84 58.39-26.03 56.86-27.22 53.58-27.22L53.58-27.22 46.02-27.22 46.02-17.19 53.58-17.19ZM77.41 0Q76.11 0 75.37-0.72 74.63-1.44 74.63-2.75L74.63-2.75 74.63-28.98Q74.63-30.29 75.37-31 76.11-31.72 77.41-31.72L77.41-31.72 93.66-31.72Q94.97-31.72 95.69-31.14 96.41-30.55 96.41-29.47L96.41-29.47Q96.41-28.35 95.69-27.74 94.97-27.13 93.66-27.13L93.66-27.13 80.3-27.13 80.3-18.4 92.76-18.4Q94.06-18.4 94.78-17.82 95.5-17.23 95.5-16.11L95.5-16.11Q95.5-15.03 94.78-14.45 94.06-13.86 92.76-13.86L92.76-13.86 80.3-13.86 80.3-4.59 93.66-4.59Q94.97-4.59 95.69-3.98 96.41-3.38 96.41-2.25L96.41-2.25Q96.41-1.17 95.69-0.58 94.97 0 93.66 0L93.66 0 77.41 0ZM132.34-3.46Q132.61-2.88 132.61-2.29L132.61-2.29Q132.61-1.26 131.78-0.54 130.95 0.18 129.87 0.18L129.87 0.18Q129.15 0.18 128.52-0.2 127.89-0.58 127.53-1.4L127.53-1.4 124.83-7.42 108.99-7.42 106.29-1.4Q105.93-0.58 105.3-0.2 104.67 0.18 103.9 0.18L103.9 0.18Q102.87 0.18 102.01-0.54 101.16-1.26 101.16-2.29L101.16-2.29Q101.16-2.88 101.43-3.46L101.43-3.46 113.85-30.15Q114.25-31.05 115.09-31.52 115.92-31.99 116.86-31.99L116.86-31.99Q117.81-31.99 118.64-31.52 119.47-31.05 119.88-30.15L119.88-30.15 132.34-3.46ZM116.91-25.29L110.97-11.92 122.85-11.92 116.91-25.29ZM168.15-31.95Q169.41-31.95 170.18-31.16 170.94-30.38 170.94-29.07L170.94-29.07 170.94-2.43Q170.94-1.17 170.22-0.45 169.5 0.27 168.33 0.27L168.33 0.27Q167.16 0.27 166.49-0.45 165.81-1.17 165.81-2.43L165.81-2.43 165.81-20.97 158.16-6.48Q157.62-5.49 156.99-5.02 156.36-4.54 155.5-4.54L155.5-4.54Q154.65-4.54 154.02-5 153.39-5.44 152.85-6.48L152.85-6.48 145.16-20.75 145.16-2.43Q145.16-1.21 144.46-0.47 143.76 0.27 142.59 0.27L142.59 0.27Q141.42 0.27 140.75-0.45 140.07-1.17 140.07-2.43L140.07-2.43 140.07-29.07Q140.07-30.38 140.81-31.16 141.56-31.95 142.81-31.95L142.81-31.95Q144.57-31.95 145.56-30.02L145.56-30.02 155.55-10.98 165.5-30.02Q166.49-31.95 168.15-31.95L168.15-31.95Z" transform="translate(-3.4200000762939453, 31.989999771118164)"></path></g>       </g></g> </g></mask><defs v-gra="od"></defs></svg>