<svg data-v-0dd9719b="" version="1.0" xmlns="http://www.w3.org/2000/svg" xmlns:xlink="http://www.w3.org/1999/xlink" width="100%" height="100%" viewBox="0 0 340.000000 250.000000" preserveAspectRatio="xMidYMid meet" color-interpolation-filters="sRGB" style="margin: auto;">   <g data-v-0dd9719b="" class="iconmbgsvg" transform="translate(106.38500213623047,72.14984893798828)"><g fill="#000000" hollow-target="textNormalTran"><g opacity="0.55" transform="translate(7.364994049072266,0)"><g><rect fill="#000000" fill-opacity="0" stroke-width="2" x="0" y="0" width="112.5" height="105.70029971907209" class="image-rect"></rect> <svg x="0" y="0" width="112.5" height="105.70029971907209" filtersec="colorsb5875257696" class="image-svg-svg primary" style="overflow: visible;"><svg version="1.1" id="cube" xmlns="http://www.w3.org/2000/svg" xmlns:xlink="http://www.w3.org/1999/xlink" x="0px" y="0px" viewBox="3.3300018310546875 4 426 400.25006103515625" enable-background="new 0 0 434.83 410.46" xml:space="preserve">
<g>
	<path fill="#EA6000" d="M215.95,124.08c-78.98,0-152.21,28.73-212.62,77.72l5.12,77.68c20.62-9.52,42.12-17.58,64.26-24.19
		c1.98-0.98,4.16-1.56,6.51-1.56c7.69,0,13.94,5.87,14.69,13.39h0.05l7.29,137.13h115.46V124.1
		C216.45,124.1,216.2,124.08,215.95,124.08z"></path>
	<path fill="#FBC600" d="M216.71,124.08c78.95,0,152.18,28.73,212.62,77.72l-5.15,77.68c-20.6-9.52-42.11-17.58-64.27-24.19
		c-1.97-0.98-4.16-1.56-6.51-1.56c-7.67,0-13.94,5.87-14.66,13.39h-0.06l-7.29,137.13H215.95V124.1
		C216.2,124.1,216.45,124.08,216.71,124.08z"></path>
	<path fill="#EA6000" d="M210.93,60.96c0,31.46-25.51,56.97-56.96,56.97c-31.44,0-56.96-25.51-56.96-56.97
		C97.02,29.5,122.53,4,153.97,4C185.42,4,210.93,29.5,210.93,60.96z"></path>
	<path fill="#FBC600" d="M335.62,60.96c0,31.46-25.5,56.97-56.96,56.97c-31.46,0-56.96-25.51-56.96-56.97
		C221.7,29.5,247.2,4,278.66,4C310.12,4,335.62,29.5,335.62,60.96z"></path>
</g>
</svg></svg> <!----></g></g> <g transform="translate(0,29.240150451660156)"><g data-gra="path-name" fill-rule="" class="tp-name"><g transform="scale(1)"><g><path d="M33.61-46.27L50.69-46.27 47.77 0.32 33.29 0.95 33.42-23.61 26.88-3.81 21.3-3.81 16.28-21.52 16.22-0.95 1.56-0.51 2.19-44.37 18.5-45 24.98-23.99 33.61-46.27ZM81.19-45L96.17-45.51 93.88-2.48 77.25-0.95 68.36-23.99 66.97-0.51 52.69-0.51 53.83-45.51 69.7-46.27 80.68-23.42 81.19-45ZM99.53-45.77L128.79-45.77Q128.6-42.78 128.44-39.86 128.29-36.94 128.03-33.96L128.03-33.96 114.58-33.26 114.26-29.26 123.72-29.26 123.02-19.42 113.5-19.11 113.18-14.47 121.05-14.47 126.64-14.47Q126.45-10.98 126.24-7.54 126.03-4.09 125.87-0.63L125.87-0.63 98.52 0 99.53-45.77Z" transform="translate(-1.559999942779541, 46.27000045776367)"></path></g> <!----> <!----> <!----> <!----> <!----> <!----> <!----></g></g> <!----></g></g></g><defs v-gra="od"></defs></svg>