<svg data-v-0dd9719b="" version="1.0" xmlns="http://www.w3.org/2000/svg" xmlns:xlink="http://www.w3.org/1999/xlink" width="100%" height="100%" viewBox="0 0 340.000000 250.000000" preserveAspectRatio="xMidYMid meet" color-interpolation-filters="sRGB" style="margin: auto;">   <g data-v-0dd9719b="" class="iconmbgsvg" transform="translate(81.9627457857132,79.79386138916016)"><g fill="#000000" hollow-target="textNormalTran"><g opacity="0.55" transform="translate(31.787254333496094,0)"><g><rect fill="#000000" fill-opacity="0" stroke-width="2" x="0" y="0" width="112.5" height="90.41227999678534" class="image-rect"></rect> <svg x="0" y="0" width="112.5" height="90.41227999678534" filtersec="colorsb4015734917" class="image-svg-svg primary" style="overflow: visible;"><svg xmlns="http://www.w3.org/2000/svg" viewBox="-0.000013473037142830435 0 124.43001556396484 100"><g fill-rule="evenodd"><path d="M99.27 20.18L74.83 60.05 67.44 48l9.63-15.72H48.12l34.13 55.65-7.4 12.07L62.6 80l-12.25 20L43 87.93l12.25-20-29.33-47.75h73.35" fill="#77bdf2"></path><path d="M37.66 80L1.73 21.39A13.88 13.88 0 0 1 0 14.66C0 7 6.29.57 14.44 0H110c8.13.57 14.43 7 14.43 14.66a14.06 14.06 0 0 1-1.73 6.74L86.76 80l-7-11.54L111.94 16a3 3 0 0 0 .29-1.32 3.27 3.27 0 0 0-2.85-3.18H15.06a3.28 3.28 0 0 0-2.88 3.18 3 3 0 0 0 .3 1.31l32.17 52.47z" fill="#313b50"></path></g></svg></svg> <!----></g></g> <g transform="translate(0,32.82113838195801)"><g data-gra="path-name" fill-rule="" class="tp-name"><g transform="scale(1)"><g><path d="M4.55-2.63L4.55-2.63Q3.94-2.63 3.41-2.85 2.89-3.06 2.52-3.46 2.14-3.85 2.01-4.4 1.88-4.95 2.06-5.56L2.06-5.56 4.99-27.4 31.47-27.4 31.04-23.2 12.56-23.2 10.46-6.83 26.83-6.83 28.93-8.49 28.1-2.63 4.55-2.63ZM36.86-27.4L64.17-27.4 62.51-14.8Q62.51-14.18 62.23-13.64 61.94-13.09 61.46-12.69 60.98-12.3 60.39-12.08 59.8-11.86 59.14-11.86L59.14-11.86 53.67-11.86 62.51-2.63 53.27-2.63 44.87-11.86 43.6-2.63 35.19-2.63 38.13-25.74 36.86-27.4ZM55.37-23.2L46.14-23.2 45.26-16.07 54.54-16.07 55.37-23.2ZM70-27.4L80.11-27.4 76.3-2.63 68.33-2.63 71.26-25.74 70-27.4ZM86.37-7.66L101.51-7.66 102.34-12.69 85.54-12.69 87.64-27.4 112.41-27.4 111.58-20.27 103.18-20.27 103.61-23.2 95.6-23.2 94.33-16.9 111.14-16.9 109.48-5.56Q109.48-4.95 109.2-4.4 108.91-3.85 108.43-3.46 107.95-3.06 107.36-2.85 106.77-2.63 106.11-2.63L106.11-2.63 84.27-2.63 85.1-9.37 86.37-7.66ZM118.02-27.4L145.33-27.4 143.67-13.96Q143.32-12.69 142.29-11.86 141.26-11.03 140.3-11.03L140.3-11.03 125.59-11.03 124.32-2.63 116.35-2.63 119.29-26.18 118.02-27.4ZM136.53-23.2L127.3-23.2 126.42-15.23 135.26-15.23 136.53-23.2ZM150.71-27.4L178.03-27.4 176.37-14.8Q176.37-14.18 176.08-13.64 175.8-13.09 175.32-12.69 174.83-12.3 174.24-12.08 173.65-11.86 173-11.86L173-11.86 167.52-11.86 176.37-2.63 167.13-2.63 158.73-11.86 157.46-2.63 149.05-2.63 151.98-25.74 150.71-27.4ZM169.23-23.2L160-23.2 159.12-16.07 168.4-16.07 169.23-23.2Z" transform="translate(-1.9554839134216309, 27.399999618530273)"></path></g> <!----> <!----> <!----> <!----> <!----> <!----> <!----></g></g> <!----></g></g></g><defs v-gra="od"></defs></svg>